<svg width="292" height="164" viewBox="0 0 292 164" fill="none" xmlns="http://www.w3.org/2000/svg">
<g clip-path="url(#clip0_604_8)">
<path d="M100.704 72.528H108.032L112.784 83.984H112.384L117.136 72.528H124.176V94H119.024V78.72H119.728L114.208 92H110.896L105.408 78.752H105.824V94H100.704V72.528ZM133.834 94.512C132.512 94.512 131.269 94.1707 130.106 93.488C128.944 92.8053 128 91.8293 127.274 90.56C126.56 89.2907 126.202 87.7867 126.202 86.048C126.202 84.3093 126.56 82.8213 127.274 81.584C127.989 80.336 128.928 79.3813 130.09 78.72C131.253 78.0587 132.501 77.728 133.834 77.728C135.157 77.728 136.309 77.9947 137.29 78.528C138.272 79.0507 139.061 79.76 139.658 80.656C140.266 81.552 140.661 82.5653 140.842 83.696C141.034 84.816 140.997 85.9733 140.73 87.168H130.25V84.576H136.986L136.25 85.056C136.282 84.6827 136.266 84.304 136.202 83.92C136.149 83.536 136.037 83.184 135.866 82.864C135.696 82.5333 135.45 82.272 135.13 82.08C134.821 81.8773 134.421 81.776 133.93 81.776C133.386 81.776 132.912 81.9093 132.506 82.176C132.112 82.432 131.802 82.8107 131.578 83.312C131.365 83.8027 131.258 84.4053 131.258 85.12V87.136C131.258 87.808 131.354 88.3893 131.546 88.88C131.738 89.3707 132.021 89.7547 132.394 90.032C132.778 90.2987 133.258 90.432 133.834 90.432C134.304 90.432 134.714 90.336 135.066 90.144C135.418 89.952 135.664 89.648 135.802 89.232H140.89C140.73 90.2133 140.336 91.104 139.706 91.904C139.088 92.704 138.277 93.3387 137.274 93.808C136.282 94.2773 135.136 94.512 133.834 94.512ZM149.414 94.512C148.038 94.512 146.758 94.1653 145.574 93.472C144.4 92.7787 143.451 91.8027 142.726 90.544C142.011 89.2853 141.654 87.8133 141.654 86.128C141.654 84.2827 142.011 82.7413 142.726 81.504C143.451 80.256 144.4 79.3173 145.574 78.688C146.758 78.048 148.038 77.728 149.414 77.728C150.576 77.728 151.59 77.9253 152.454 78.32C153.328 78.7147 154.054 79.232 154.63 79.872C155.206 80.512 155.632 81.216 155.91 81.984C156.198 82.752 156.342 83.504 156.342 84.24L151.222 84.192C151.147 83.7333 150.96 83.3173 150.662 82.944C150.374 82.56 149.947 82.368 149.382 82.368C148.934 82.368 148.507 82.4853 148.102 82.72C147.707 82.944 147.382 83.328 147.126 83.872C146.88 84.416 146.758 85.168 146.758 86.128C146.758 87.0667 146.88 87.808 147.126 88.352C147.382 88.896 147.707 89.28 148.102 89.504C148.507 89.728 148.934 89.84 149.382 89.84C150.107 89.84 150.592 89.6747 150.838 89.344C151.094 89.0027 151.222 88.576 151.222 88.064H156.342C156.342 89.1947 156.091 90.2507 155.59 91.232C155.088 92.2133 154.326 93.008 153.302 93.616C152.288 94.2133 150.992 94.512 149.414 94.512ZM168.58 94V84.816C168.58 83.984 168.377 83.3707 167.972 82.976C167.566 82.5707 167.076 82.368 166.5 82.368C165.913 82.368 165.374 82.5333 164.884 82.864C164.393 83.1947 163.998 83.728 163.7 84.464C163.412 85.1893 163.268 86.1547 163.268 87.36H161.716C161.716 85.0987 161.982 83.2587 162.516 81.84C163.06 80.4213 163.796 79.3813 164.724 78.72C165.662 78.0587 166.724 77.728 167.908 77.728C169.262 77.728 170.366 78.032 171.22 78.64C172.084 79.248 172.718 80.0853 173.124 81.152C173.529 82.2187 173.732 83.44 173.732 84.816V94H168.58ZM158.148 94V71.92H163.268V94H158.148ZM186.838 94L186.182 89.792V83.888C186.182 83.0987 186.038 82.4853 185.75 82.048C185.462 81.6107 184.848 81.392 183.91 81.392C183.355 81.392 182.902 81.4773 182.55 81.648C182.208 81.808 181.952 82.0267 181.782 82.304C181.622 82.5707 181.542 82.864 181.542 83.184H176.006C176.006 81.9467 176.299 80.928 176.886 80.128C177.472 79.3173 178.352 78.7147 179.526 78.32C180.699 77.9253 182.16 77.728 183.91 77.728C185.435 77.728 186.747 77.9627 187.846 78.432C188.955 78.9013 189.808 79.6053 190.406 80.544C191.003 81.4827 191.302 82.6613 191.302 84.08V94H186.838ZM181.878 94.512C180.47 94.512 179.28 94.2773 178.31 93.808C177.35 93.328 176.624 92.6827 176.134 91.872C175.643 91.0613 175.398 90.1653 175.398 89.184C175.398 88.256 175.654 87.456 176.166 86.784C176.678 86.1013 177.435 85.5733 178.438 85.2C179.451 84.8267 180.694 84.64 182.166 84.64C183.062 84.64 183.851 84.688 184.534 84.784C185.227 84.88 185.936 84.9973 186.662 85.136V88.016C186.128 87.8987 185.574 87.808 184.998 87.744C184.432 87.68 183.878 87.648 183.334 87.648C182.576 87.648 181.974 87.7707 181.526 88.016C181.088 88.2507 180.87 88.64 180.87 89.184C180.87 89.5787 181.067 89.9253 181.462 90.224C181.856 90.512 182.48 90.656 183.334 90.656C184.059 90.656 184.63 90.512 185.046 90.224C185.462 89.936 185.755 89.5733 185.926 89.136C186.096 88.6987 186.182 88.2667 186.182 87.84H187.382C187.382 89.056 187.19 90.1707 186.806 91.184C186.422 92.1973 185.824 93.008 185.014 93.616C184.203 94.2133 183.158 94.512 181.878 94.512ZM206.617 72.528H213.609L199.001 87.376V80.512L206.617 72.528ZM203.209 81.2L214.217 94H207.673L199.721 84.544L203.209 81.2ZM194.137 72.528H199.289V94H194.137V72.528ZM220.7 94.512C219.378 94.512 218.135 94.1707 216.972 93.488C215.81 92.8053 214.866 91.8293 214.14 90.56C213.426 89.2907 213.068 87.7867 213.068 86.048C213.068 84.3093 213.426 82.8213 214.14 81.584C214.855 80.336 215.794 79.3813 216.956 78.72C218.119 78.0587 219.367 77.728 220.7 77.728C222.023 77.728 223.175 77.9947 224.156 78.528C225.138 79.0507 225.927 79.76 226.524 80.656C227.132 81.552 227.527 82.5653 227.708 83.696C227.9 84.816 227.863 85.9733 227.596 87.168H217.116V84.576H223.852L223.116 85.056C223.148 84.6827 223.132 84.304 223.068 83.92C223.015 83.536 222.903 83.184 222.732 82.864C222.562 82.5333 222.316 82.272 221.996 82.08C221.687 81.8773 221.287 81.776 220.796 81.776C220.252 81.776 219.778 81.9093 219.372 82.176C218.978 82.432 218.668 82.8107 218.444 83.312C218.231 83.8027 218.124 84.4053 218.124 85.12V87.136C218.124 87.808 218.22 88.3893 218.412 88.88C218.604 89.3707 218.887 89.7547 219.26 90.032C219.644 90.2987 220.124 90.432 220.7 90.432C221.17 90.432 221.58 90.336 221.932 90.144C222.284 89.952 222.53 89.648 222.668 89.232H227.756C227.596 90.2133 227.202 91.104 226.572 91.904C225.954 92.704 225.143 93.3387 224.14 93.808C223.148 94.2773 222.002 94.512 220.7 94.512ZM227.496 78.24H233.352L236.584 89.52H235.8L239.016 78.24H244.2L238.056 96.544C237.309 98.6987 236.44 100.181 235.448 100.992C234.466 101.803 233.32 102.208 232.008 102.208C231.208 102.208 230.402 102.133 229.592 101.984C228.792 101.845 227.992 101.611 227.192 101.28V96.88C227.789 97.1573 228.37 97.3653 228.936 97.504C229.512 97.6533 230.072 97.728 230.616 97.728C230.978 97.728 231.32 97.6587 231.64 97.52C231.96 97.392 232.253 97.1627 232.52 96.832C232.786 96.5013 233.01 96.048 233.192 95.472L233.704 94L227.496 78.24ZM250.95 94.512C249.446 94.512 248.118 94.3147 246.966 93.92C245.814 93.5147 244.913 92.912 244.262 92.112C243.622 91.3013 243.307 90.2827 243.318 89.056H247.942C247.963 89.6107 248.177 89.9947 248.582 90.208C248.998 90.4213 249.558 90.528 250.262 90.528C250.689 90.528 251.041 90.4747 251.318 90.368C251.595 90.2613 251.803 90.1227 251.942 89.952C252.081 89.7707 252.15 89.5787 252.15 89.376C252.15 89.1093 252.054 88.896 251.862 88.736C251.67 88.576 251.371 88.416 250.966 88.256L247.142 86.768C246.011 86.2987 245.137 85.7067 244.518 84.992C243.91 84.2667 243.606 83.408 243.606 82.416C243.606 81.0187 244.251 79.888 245.542 79.024C246.833 78.16 248.598 77.728 250.838 77.728C252.939 77.728 254.555 78.2187 255.686 79.2C256.817 80.1813 257.387 81.4293 257.398 82.944H252.71C252.71 82.6027 252.566 82.3093 252.278 82.064C251.99 81.808 251.51 81.68 250.838 81.68C250.283 81.68 249.846 81.7707 249.526 81.952C249.206 82.1333 249.046 82.3733 249.046 82.672C249.046 83.0773 249.382 83.3973 250.054 83.632L254.406 85.376C255.483 85.8027 256.331 86.336 256.95 86.976C257.569 87.616 257.878 88.416 257.878 89.376C257.878 90.2507 257.574 91.0827 256.966 91.872C256.369 92.6507 255.547 93.2853 254.502 93.776C253.457 94.2667 252.273 94.512 250.95 94.512Z" fill="white"/>
<path d="M33 75.1932V99L58 74.9754L45.6891 63L33 75.1932Z" fill="white"/>
<path d="M48 87.2203L59.2029 98L71.5056 86.869L83 98V74.8611L71.645 64L48 87.2203Z" fill="white"/>
<path opacity="0.1" d="M91.424 51.512C89.9627 51.512 88.6187 51.2133 87.392 50.616C86.176 50.008 85.2 49.0907 84.464 47.864C83.7387 46.6267 83.376 45.0587 83.376 43.16C83.376 41.1973 83.7387 39.5973 84.464 38.36C85.2 37.1227 86.176 36.2107 87.392 35.624C88.6187 35.0267 89.9627 34.728 91.424 34.728C92.8533 34.728 94.1707 35.0267 95.376 35.624C96.5813 36.2107 97.5467 37.1227 98.272 38.36C99.008 39.5973 99.376 41.1973 99.376 43.16C99.376 45.0587 99.008 46.6267 98.272 47.864C97.5467 49.0907 96.5813 50.008 95.376 50.616C94.1707 51.2133 92.8533 51.512 91.424 51.512ZM91.232 47.048C91.7227 47.048 92.1973 46.92 92.656 46.664C93.1253 46.408 93.5147 45.9973 93.824 45.432C94.1333 44.856 94.288 44.0987 94.288 43.16C94.288 41.6987 94.0267 40.6693 93.504 40.072C92.9813 39.4747 92.352 39.176 91.616 39.176C91.1253 39.176 90.6347 39.304 90.144 39.56C89.664 39.816 89.264 40.2373 88.944 40.824C88.6347 41.4 88.48 42.1787 88.48 43.16C88.48 44.5787 88.752 45.5813 89.296 46.168C89.8507 46.7547 90.496 47.048 91.232 47.048Z" fill="white"/>
<path opacity="0.1" d="M24.424 131.512C22.9627 131.512 21.6187 131.213 20.392 130.616C19.176 130.008 18.2 129.091 17.464 127.864C16.7387 126.627 16.376 125.059 16.376 123.16C16.376 121.197 16.7387 119.597 17.464 118.36C18.2 117.123 19.176 116.211 20.392 115.624C21.6187 115.027 22.9627 114.728 24.424 114.728C25.8533 114.728 27.1707 115.027 28.376 115.624C29.5813 116.211 30.5467 117.123 31.272 118.36C32.008 119.597 32.376 121.197 32.376 123.16C32.376 125.059 32.008 126.627 31.272 127.864C30.5467 129.091 29.5813 130.008 28.376 130.616C27.1707 131.213 25.8533 131.512 24.424 131.512ZM24.232 127.048C24.7227 127.048 25.1973 126.92 25.656 126.664C26.1253 126.408 26.5147 125.997 26.824 125.432C27.1333 124.856 27.288 124.099 27.288 123.16C27.288 121.699 27.0267 120.669 26.504 120.072C25.9813 119.475 25.352 119.176 24.616 119.176C24.1253 119.176 23.6347 119.304 23.144 119.56C22.664 119.816 22.264 120.237 21.944 120.824C21.6347 121.4 21.48 122.179 21.48 123.16C21.48 124.579 21.752 125.581 22.296 126.168C22.8507 126.755 23.496 127.048 24.232 127.048Z" fill="white"/>
<path opacity="0.1" d="M8.424 131.512C6.96267 131.512 5.61867 131.213 4.392 130.616C3.176 130.008 2.2 129.091 1.464 127.864C0.738667 126.627 0.376 125.059 0.376 123.16C0.376 121.197 0.738667 119.597 1.464 118.36C2.2 117.123 3.176 116.211 4.392 115.624C5.61867 115.027 6.96267 114.728 8.424 114.728C9.85333 114.728 11.1707 115.027 12.376 115.624C13.5813 116.211 14.5467 117.123 15.272 118.36C16.008 119.597 16.376 121.197 16.376 123.16C16.376 125.059 16.008 126.627 15.272 127.864C14.5467 129.091 13.5813 130.008 12.376 130.616C11.1707 131.213 9.85333 131.512 8.424 131.512ZM8.232 127.048C8.72267 127.048 9.19733 126.92 9.656 126.664C10.1253 126.408 10.5147 125.997 10.824 125.432C11.1333 124.856 11.288 124.099 11.288 123.16C11.288 121.699 11.0267 120.669 10.504 120.072C9.98133 119.475 9.352 119.176 8.616 119.176C8.12533 119.176 7.63467 119.304 7.144 119.56C6.664 119.816 6.264 120.237 5.944 120.824C5.63467 121.4 5.48 122.179 5.48 123.16C5.48 124.579 5.752 125.581 6.296 126.168C6.85067 126.755 7.496 127.048 8.232 127.048Z" fill="white"/>
<path d="M0 113H292" stroke="#F85077" stroke-width="0.5"/>
<path d="M0 59H292" stroke="#F85077" stroke-width="0.5"/>
<path d="M0 52H292" stroke="#F85077" stroke-width="0.5"/>
<path d="M0 32H292" stroke="#F85077" stroke-width="0.5"/>
<path d="M83 33L100 33" stroke="#F85077" stroke-width="2"/>
<path d="M0 33L33 33" stroke="#F85077" stroke-width="2"/>
<path d="M0 132H292" stroke="#F85077" stroke-width="0.5"/>
<path d="M100 132L100 32" stroke="#F85077" stroke-width="0.5"/>
<path d="M83 132L83 32" stroke="#F85077" stroke-width="0.5"/>
<path d="M33 132L33 32" stroke="#F85077" stroke-width="0.5"/>
<path d="M0 132L4.37114e-06 32" stroke="#F85077" stroke-width="0.5"/>
<path d="M259 132L259 32" stroke="#F85077" stroke-width="0.5"/>
<path d="M292 132L292 32" stroke="#F85077" stroke-width="0.5"/>
<path d="M0 107H292" stroke="#F85077" stroke-width="0.5"/>
<path d="M81.055 27L83.03 24.55L81.055 22.045H83.03L84.03 23.345L84.96 22.045H86.915L84.975 24.55L86.925 27H84.97L83.93 25.715L83.03 27H81.055ZM88.7619 27.885L91.3919 19.405H93.0319L90.3819 27.885H88.7619ZM95.2639 27V25.7C95.2639 25.3367 95.3139 25.0233 95.4139 24.76C95.5139 24.4933 95.6756 24.265 95.8989 24.075C96.1222 23.885 96.4172 23.7217 96.7839 23.585L98.2089 23.055C98.4656 22.955 98.6522 22.8367 98.7689 22.7C98.8856 22.5633 98.9439 22.3983 98.9439 22.205C98.9439 22.0283 98.8739 21.8717 98.7339 21.735C98.5939 21.595 98.3872 21.525 98.1139 21.525C97.8606 21.525 97.6422 21.6017 97.4589 21.755C97.2756 21.9083 97.1706 22.1267 97.1439 22.41H95.3739C95.3706 21.8833 95.4922 21.4533 95.7389 21.12C95.9889 20.7833 96.3206 20.5367 96.7339 20.38C97.1472 20.22 97.5972 20.14 98.0839 20.14C98.5572 20.14 98.9872 20.2267 99.3739 20.4C99.7639 20.5733 100.074 20.8183 100.304 21.135C100.537 21.4483 100.654 21.8217 100.654 22.255C100.654 22.5983 100.592 22.9033 100.469 23.17C100.346 23.4367 100.147 23.675 99.8739 23.885C99.6006 24.0917 99.2372 24.28 98.7839 24.45L97.3689 24.985C97.1756 25.0583 97.0422 25.13 96.9689 25.2C96.8989 25.2667 96.8639 25.355 96.8639 25.465V25.54H100.634V27H95.2639Z" fill="white"/>
<path d="M12.055 27L14.03 24.55L12.055 22.045H14.03L15.03 23.345L15.96 22.045H17.915L15.975 24.55L17.925 27H15.97L14.93 25.715L14.03 27H12.055Z" fill="white"/>
</g>
<defs>
<clipPath id="clip0_604_8">
<rect width="292" height="164" fill="white"/>
</clipPath>
</defs>
</svg>
