<svg width="292" height="100" viewBox="0 0 292 100" fill="none" xmlns="http://www.w3.org/2000/svg">
<path d="M100.704 40.528H108.032L112.784 51.984H112.384L117.136 40.528H124.176V62H119.024V46.72H119.728L114.208 60H110.896L105.408 46.752H105.824V62H100.704V40.528ZM133.834 62.512C132.512 62.512 131.269 62.1707 130.106 61.488C128.944 60.8053 128 59.8293 127.274 58.56C126.56 57.2907 126.202 55.7867 126.202 54.048C126.202 52.3093 126.56 50.8213 127.274 49.584C127.989 48.336 128.928 47.3813 130.09 46.72C131.253 46.0587 132.501 45.728 133.834 45.728C135.157 45.728 136.309 45.9947 137.29 46.528C138.272 47.0507 139.061 47.76 139.658 48.656C140.266 49.552 140.661 50.5653 140.842 51.696C141.034 52.816 140.997 53.9733 140.73 55.168H130.25V52.576H136.986L136.25 53.056C136.282 52.6827 136.266 52.304 136.202 51.92C136.149 51.536 136.037 51.184 135.866 50.864C135.696 50.5333 135.45 50.272 135.13 50.08C134.821 49.8773 134.421 49.776 133.93 49.776C133.386 49.776 132.912 49.9093 132.506 50.176C132.112 50.432 131.802 50.8107 131.578 51.312C131.365 51.8027 131.258 52.4053 131.258 53.12V55.136C131.258 55.808 131.354 56.3893 131.546 56.88C131.738 57.3707 132.021 57.7547 132.394 58.032C132.778 58.2987 133.258 58.432 133.834 58.432C134.304 58.432 134.714 58.336 135.066 58.144C135.418 57.952 135.664 57.648 135.802 57.232H140.89C140.73 58.2133 140.336 59.104 139.706 59.904C139.088 60.704 138.277 61.3387 137.274 61.808C136.282 62.2773 135.136 62.512 133.834 62.512ZM149.414 62.512C148.038 62.512 146.758 62.1653 145.574 61.472C144.4 60.7787 143.451 59.8027 142.726 58.544C142.011 57.2853 141.654 55.8133 141.654 54.128C141.654 52.2827 142.011 50.7413 142.726 49.504C143.451 48.256 144.4 47.3173 145.574 46.688C146.758 46.048 148.038 45.728 149.414 45.728C150.576 45.728 151.59 45.9253 152.454 46.32C153.328 46.7147 154.054 47.232 154.63 47.872C155.206 48.512 155.632 49.216 155.91 49.984C156.198 50.752 156.342 51.504 156.342 52.24L151.222 52.192C151.147 51.7333 150.96 51.3173 150.662 50.944C150.374 50.56 149.947 50.368 149.382 50.368C148.934 50.368 148.507 50.4853 148.102 50.72C147.707 50.944 147.382 51.328 147.126 51.872C146.88 52.416 146.758 53.168 146.758 54.128C146.758 55.0667 146.88 55.808 147.126 56.352C147.382 56.896 147.707 57.28 148.102 57.504C148.507 57.728 148.934 57.84 149.382 57.84C150.107 57.84 150.592 57.6747 150.838 57.344C151.094 57.0027 151.222 56.576 151.222 56.064H156.342C156.342 57.1947 156.091 58.2507 155.59 59.232C155.088 60.2133 154.326 61.008 153.302 61.616C152.288 62.2133 150.992 62.512 149.414 62.512ZM168.58 62V52.816C168.58 51.984 168.377 51.3707 167.972 50.976C167.566 50.5707 167.076 50.368 166.5 50.368C165.913 50.368 165.374 50.5333 164.884 50.864C164.393 51.1947 163.998 51.728 163.7 52.464C163.412 53.1893 163.268 54.1547 163.268 55.36H161.716C161.716 53.0987 161.982 51.2587 162.516 49.84C163.06 48.4213 163.796 47.3813 164.724 46.72C165.662 46.0587 166.724 45.728 167.908 45.728C169.262 45.728 170.366 46.032 171.22 46.64C172.084 47.248 172.718 48.0853 173.124 49.152C173.529 50.2187 173.732 51.44 173.732 52.816V62H168.58ZM158.148 62V39.92H163.268V62H158.148ZM186.838 62L186.182 57.792V51.888C186.182 51.0987 186.038 50.4853 185.75 50.048C185.462 49.6107 184.848 49.392 183.91 49.392C183.355 49.392 182.902 49.4773 182.55 49.648C182.208 49.808 181.952 50.0267 181.782 50.304C181.622 50.5707 181.542 50.864 181.542 51.184H176.006C176.006 49.9467 176.299 48.928 176.886 48.128C177.472 47.3173 178.352 46.7147 179.526 46.32C180.699 45.9253 182.16 45.728 183.91 45.728C185.435 45.728 186.747 45.9627 187.846 46.432C188.955 46.9013 189.808 47.6053 190.406 48.544C191.003 49.4827 191.302 50.6613 191.302 52.08V62H186.838ZM181.878 62.512C180.47 62.512 179.28 62.2773 178.31 61.808C177.35 61.328 176.624 60.6827 176.134 59.872C175.643 59.0613 175.398 58.1653 175.398 57.184C175.398 56.256 175.654 55.456 176.166 54.784C176.678 54.1013 177.435 53.5733 178.438 53.2C179.451 52.8267 180.694 52.64 182.166 52.64C183.062 52.64 183.851 52.688 184.534 52.784C185.227 52.88 185.936 52.9973 186.662 53.136V56.016C186.128 55.8987 185.574 55.808 184.998 55.744C184.432 55.68 183.878 55.648 183.334 55.648C182.576 55.648 181.974 55.7707 181.526 56.016C181.088 56.2507 180.87 56.64 180.87 57.184C180.87 57.5787 181.067 57.9253 181.462 58.224C181.856 58.512 182.48 58.656 183.334 58.656C184.059 58.656 184.63 58.512 185.046 58.224C185.462 57.936 185.755 57.5733 185.926 57.136C186.096 56.6987 186.182 56.2667 186.182 55.84H187.382C187.382 57.056 187.19 58.1707 186.806 59.184C186.422 60.1973 185.824 61.008 185.014 61.616C184.203 62.2133 183.158 62.512 181.878 62.512ZM206.617 40.528H213.609L199.001 55.376V48.512L206.617 40.528ZM203.209 49.2L214.217 62H207.673L199.721 52.544L203.209 49.2ZM194.137 40.528H199.289V62H194.137V40.528ZM220.7 62.512C219.378 62.512 218.135 62.1707 216.972 61.488C215.81 60.8053 214.866 59.8293 214.14 58.56C213.426 57.2907 213.068 55.7867 213.068 54.048C213.068 52.3093 213.426 50.8213 214.14 49.584C214.855 48.336 215.794 47.3813 216.956 46.72C218.119 46.0587 219.367 45.728 220.7 45.728C222.023 45.728 223.175 45.9947 224.156 46.528C225.138 47.0507 225.927 47.76 226.524 48.656C227.132 49.552 227.527 50.5653 227.708 51.696C227.9 52.816 227.863 53.9733 227.596 55.168H217.116V52.576H223.852L223.116 53.056C223.148 52.6827 223.132 52.304 223.068 51.92C223.015 51.536 222.903 51.184 222.732 50.864C222.562 50.5333 222.316 50.272 221.996 50.08C221.687 49.8773 221.287 49.776 220.796 49.776C220.252 49.776 219.778 49.9093 219.372 50.176C218.978 50.432 218.668 50.8107 218.444 51.312C218.231 51.8027 218.124 52.4053 218.124 53.12V55.136C218.124 55.808 218.22 56.3893 218.412 56.88C218.604 57.3707 218.887 57.7547 219.26 58.032C219.644 58.2987 220.124 58.432 220.7 58.432C221.17 58.432 221.58 58.336 221.932 58.144C222.284 57.952 222.53 57.648 222.668 57.232H227.756C227.596 58.2133 227.202 59.104 226.572 59.904C225.954 60.704 225.143 61.3387 224.14 61.808C223.148 62.2773 222.002 62.512 220.7 62.512ZM227.496 46.24H233.352L236.584 57.52H235.8L239.016 46.24H244.2L238.056 64.544C237.309 66.6987 236.44 68.1813 235.448 68.992C234.466 69.8027 233.32 70.208 232.008 70.208C231.208 70.208 230.402 70.1333 229.592 69.984C228.792 69.8453 227.992 69.6107 227.192 69.28V64.88C227.789 65.1573 228.37 65.3653 228.936 65.504C229.512 65.6533 230.072 65.728 230.616 65.728C230.978 65.728 231.32 65.6587 231.64 65.52C231.96 65.392 232.253 65.1627 232.52 64.832C232.786 64.5013 233.01 64.048 233.192 63.472L233.704 62L227.496 46.24ZM250.95 62.512C249.446 62.512 248.118 62.3147 246.966 61.92C245.814 61.5147 244.913 60.912 244.262 60.112C243.622 59.3013 243.307 58.2827 243.318 57.056H247.942C247.963 57.6107 248.177 57.9947 248.582 58.208C248.998 58.4213 249.558 58.528 250.262 58.528C250.689 58.528 251.041 58.4747 251.318 58.368C251.595 58.2613 251.803 58.1227 251.942 57.952C252.081 57.7707 252.15 57.5787 252.15 57.376C252.15 57.1093 252.054 56.896 251.862 56.736C251.67 56.576 251.371 56.416 250.966 56.256L247.142 54.768C246.011 54.2987 245.137 53.7067 244.518 52.992C243.91 52.2667 243.606 51.408 243.606 50.416C243.606 49.0187 244.251 47.888 245.542 47.024C246.833 46.16 248.598 45.728 250.838 45.728C252.939 45.728 254.555 46.2187 255.686 47.2C256.817 48.1813 257.387 49.4293 257.398 50.944H252.71C252.71 50.6027 252.566 50.3093 252.278 50.064C251.99 49.808 251.51 49.68 250.838 49.68C250.283 49.68 249.846 49.7707 249.526 49.952C249.206 50.1333 249.046 50.3733 249.046 50.672C249.046 51.0773 249.382 51.3973 250.054 51.632L254.406 53.376C255.483 53.8027 256.331 54.336 256.95 54.976C257.569 55.616 257.878 56.416 257.878 57.376C257.878 58.2507 257.574 59.0827 256.966 59.872C256.369 60.6507 255.547 61.2853 254.502 61.776C253.457 62.2667 252.273 62.512 250.95 62.512Z" fill="black"/>
<path d="M32 43.1932V67L57 42.9754L44.6891 31L32 43.1932Z" fill="black"/>
<path d="M47 55.2203L58.2029 66L70.5056 54.869L82 66V42.8611L70.645 32L47 55.2203Z" fill="black"/>
</svg>
